<?xml version="1.0" standalone="no"?>
<!DOCTYPE svg PUBLIC "-//W3C//DTD SVG 20010904//EN"
 "http://www.w3.org/TR/2001/REC-SVG-20010904/DTD/svg10.dtd">
<svg version="1.0" xmlns="http://www.w3.org/2000/svg"
 width="200.000000pt" height="200.000000pt" viewBox="0 0 200.000000 200.000000"
 preserveAspectRatio="xMidYMid meet">
<metadata>
Created by potrace 1.16, written by Peter Selinger 2001-2019
</metadata>
<g transform="translate(0.000000,200.000000) scale(0.100000,-0.100000)"
fill="#000000" stroke="none">
<path d="M470 1960 c-47 -11 -87 -58 -95 -112 -3 -24 -5 -286 -3 -583 3 -511
4 -542 22 -568 35 -52 58 -57 262 -57 l187 0 -40 29 c-41 30 -100 104 -122
156 -47 108 -56 274 -21 388 41 132 140 238 255 272 62 19 186 19 249 0 65
-20 104 -45 159 -104 85 -91 122 -197 120 -346 -2 -151 -61 -285 -161 -361
l-45 -34 192 0 191 0 38 34 37 34 3 587 c1 375 -1 586 -7 583 -6 -1 -98 -79
-205 -171 -128 -110 -200 -166 -208 -161 -21 13 -138 107 -138 112 0 2 62 69
138 149 75 79 139 149 140 154 4 11 -898 10 -948 -1z"/>
<path d="M945 1284 c-81 -42 -118 -118 -119 -244 0 -100 26 -172 80 -220 31
-27 88 -50 124 -50 36 0 93 23 124 50 54 48 80 119 79 220 0 125 -43 214 -120
246 -43 19 -131 18 -168 -2z"/>
<path d="M283 413 c-10 -3 -13 -48 -13 -174 0 -162 1 -169 20 -169 18 0 20 7
20 56 0 68 9 67 65 -4 26 -33 48 -51 63 -51 20 -1 21 1 11 20 -6 12 -29 41
-51 65 l-40 44 47 52 c38 43 44 54 30 56 -11 3 -38 -17 -71 -49 l-54 -53 0
107 c0 59 -3 107 -7 106 -5 0 -14 -3 -20 -6z"/>
<path d="M1307 413 c-4 -3 -7 -29 -7 -58 l0 -51 -54 0 c-64 1 -91 -18 -106
-76 -14 -50 2 -110 37 -138 22 -17 38 -20 87 -18 l61 3 3 173 c2 156 -1 185
-21 165z m-18 -157 c7 -9 11 -41 9 -83 l-3 -68 -35 -3 c-52 -4 -80 26 -80 85
0 29 6 53 17 65 19 22 76 24 92 4z"/>
<path d="M522 300 c-22 -9 -23 -13 -20 -117 3 -93 5 -108 21 -111 15 -3 17 7
17 97 l0 101 45 0 c57 0 65 -15 65 -119 0 -74 2 -81 20 -81 18 0 20 7 20 85 0
94 -11 128 -47 144 -28 13 -89 13 -121 1z"/>
<path d="M814 301 c-12 -5 -31 -22 -43 -37 -38 -48 -22 -157 28 -184 60 -32
144 9 157 77 8 41 -9 103 -33 126 -23 19 -81 29 -109 18z m86 -46 c7 -8 15
-34 17 -58 9 -77 -58 -126 -107 -77 -25 25 -27 95 -4 128 18 26 75 30 94 7z"/>
<path d="M1403 295 c-3 -9 -3 -53 -1 -97 4 -73 8 -84 32 -105 27 -23 83 -30
134 -17 22 6 23 9 20 118 -3 96 -5 111 -20 114 -16 3 -18 -7 -18 -97 0 -98 -1
-101 -24 -107 -62 -15 -86 24 -86 137 0 55 -3 69 -15 69 -9 0 -18 -7 -22 -15z"/>
<path d="M1680 297 c-20 -10 -25 -20 -25 -52 0 -38 3 -41 53 -68 81 -44 66
-83 -28 -75 -26 2 -35 -1 -35 -12 0 -11 14 -16 49 -18 68 -4 95 4 106 33 15
40 -4 73 -55 95 -25 11 -48 27 -52 36 -9 25 22 44 63 37 26 -4 34 -2 34 10 0
28 -65 37 -110 14z"/>
</g>
</svg>
